<?xml version="1.0" encoding="UTF-8" standalone="no"?>
<svg xmlns="http://www.w3.org/2000/svg" xmlns:xlink="http://www.w3.org/1999/xlink" contentStyleType="text/css" height="787px" preserveAspectRatio="none" style="width:1710px;height:787px;background:#FFFFFF;" version="1.1" viewBox="0 0 1710 787" width="1710px" zoomAndPan="magnify"><defs/><g><!--MD5=[0e0e86028cdeeab45c3700b4b06a7b12]
class AuthProvider--><g id="elem_AuthProvider"><rect codeLine="6" fill="#F1F1F1" height="48" id="AuthProvider" rx="2.5" ry="2.5" style="stroke:#181818;stroke-width:0.5;" width="120" x="401.5" y="237"/><ellipse cx="416.5" cy="253" fill="#EB937F" rx="11" ry="11" style="stroke:#181818;stroke-width:1.0;"/><path d="M420.6094,259 L412.8906,259 L412.8906,246.6094 L420.6094,246.6094 L420.6094,248.7656 L415.3438,248.7656 L415.3438,251.4375 L420.1094,251.4375 L420.1094,253.5938 L415.3438,253.5938 L415.3438,256.8438 L420.6094,256.8438 L420.6094,259 Z " fill="#000000"/><text fill="#000000" font-family="sans-serif" font-size="14" lengthAdjust="spacing" textLength="88" x="430.5" y="257.8467">AuthProvider</text><line style="stroke:#181818;stroke-width:0.5;" x1="402.5" x2="520.5" y1="269" y2="269"/><line style="stroke:#181818;stroke-width:0.5;" x1="402.5" x2="520.5" y1="277" y2="277"/></g><!--MD5=[63e7a34560323ddebc94de26bb3dfe24]
class Credentials--><g id="elem_Credentials"><rect codeLine="7" fill="#F1F1F1" height="194.375" id="Credentials" rx="2.5" ry="2.5" style="stroke:#181818;stroke-width:0.5;" width="225" x="7" y="299.5"/><ellipse cx="76.25" cy="315.5" fill="#ADD1B2" rx="11" ry="11" style="stroke:#181818;stroke-width:1.0;"/><path d="M80.3594,321.5 L72.6406,321.5 L72.6406,309.1094 L80.3594,309.1094 L80.3594,311.2656 L75.0938,311.2656 L75.0938,313.9375 L79.8594,313.9375 L79.8594,316.0938 L75.0938,316.0938 L75.0938,319.3438 L80.3594,319.3438 L80.3594,321.5 Z " fill="#000000"/><text fill="#000000" font-family="sans-serif" font-size="14" lengthAdjust="spacing" textLength="78" x="96.75" y="320.3467">Credentials</text><line style="stroke:#181818;stroke-width:0.5;" x1="8" x2="231" y1="331.5" y2="331.5"/><ellipse cx="18" cy="342.5" fill="#000000" rx="3" ry="3" style="stroke:#000000;stroke-width:1.0;"/><text fill="#000000" font-family="sans-serif" font-size="14" lengthAdjust="spacing" textLength="86" x="27" y="348.4951">userId: UUID</text><line style="stroke:#181818;stroke-width:1.0;" x1="8" x2="231" y1="355.7969" y2="355.7969"/><ellipse cx="18" cy="366.7969" fill="#000000" rx="3" ry="3" style="stroke:#000000;stroke-width:1.0;"/><text fill="#000000" font-family="sans-serif" font-size="14" lengthAdjust="spacing" textLength="184" x="27" y="372.792">authProvider: AuthProvider</text><ellipse cx="18" cy="383.0938" fill="#000000" rx="3" ry="3" style="stroke:#000000;stroke-width:1.0;"/><text fill="#000000" font-family="sans-serif" font-size="14" lengthAdjust="spacing" textLength="147" x="27" y="389.0889">authProviderId: string</text><text fill="#000000" font-family="sans-serif" font-size="14" lengthAdjust="spacing" textLength="152" x="27" y="405.3857">password: string | null</text><text fill="#000000" font-family="sans-serif" font-size="14" lengthAdjust="spacing" textLength="194" x="27" y="421.6826">createdAt: Date «generiert»</text><text fill="#000000" font-family="sans-serif" font-size="14" lengthAdjust="spacing" textLength="199" x="27" y="437.9795">updatedAt: Date «generiert»</text><line style="stroke:#181818;stroke-width:1.0;" x1="8" x2="231" y1="445.2813" y2="445.2813"/><text fill="#000000" font-family="sans-serif" font-size="14" lengthAdjust="spacing" textLength="181" x="13" y="462.2764">user: User «eagerloaded»</text><line style="stroke:#181818;stroke-width:1.0;" x1="8" x2="231" y1="469.5781" y2="469.5781"/><text fill="#000000" font-family="sans-serif" font-size="14" lengthAdjust="spacing" textLength="102" x="13" y="486.5732">constructor(...)</text></g><!--MD5=[3fd616f346a44cd59a91eb10b19e157c]
class User--><g id="elem_User"><rect codeLine="21" fill="#F1F1F1" height="292.1563" id="User" rx="2.5" ry="2.5" style="stroke:#181818;stroke-width:0.5;" width="307" x="308" y="324"/><ellipse cx="441.25" cy="340" fill="#ADD1B2" rx="11" ry="11" style="stroke:#181818;stroke-width:1.0;"/><path d="M444.2188,345.6406 Q443.6406,345.9375 443,346.0781 Q442.3594,346.2344 441.6563,346.2344 Q439.1563,346.2344 437.8281,344.5938 Q436.5156,342.9375 436.5156,339.8125 Q436.5156,336.6875 437.8281,335.0313 Q439.1563,333.375 441.6563,333.375 Q442.3594,333.375 443,333.5313 Q443.6563,333.6875 444.2188,333.9844 L444.2188,336.7031 Q443.5938,336.125 443,335.8594 Q442.4063,335.5781 441.7813,335.5781 Q440.4375,335.5781 439.75,336.6563 Q439.0625,337.7188 439.0625,339.8125 Q439.0625,341.9063 439.75,342.9844 Q440.4375,344.0469 441.7813,344.0469 Q442.4063,344.0469 443,343.7813 Q443.5938,343.5 444.2188,342.9219 L444.2188,345.6406 Z " fill="#000000"/><text fill="#000000" font-family="sans-serif" font-size="14" lengthAdjust="spacing" textLength="32" x="461.75" y="344.8467">User</text><line style="stroke:#181818;stroke-width:0.5;" x1="309" x2="614" y1="356" y2="356"/><ellipse cx="319" cy="367" fill="#000000" rx="3" ry="3" style="stroke:#000000;stroke-width:1.0;"/><text fill="#000000" font-family="sans-serif" font-size="14" lengthAdjust="spacing" textLength="55" x="328" y="372.9951">id: UUID</text><line style="stroke:#181818;stroke-width:1.0;" x1="309" x2="614" y1="380.2969" y2="380.2969"/><text fill="#000000" font-family="sans-serif" font-size="14" lengthAdjust="spacing" textLength="113" x="314" y="397.292">firstName: string</text><text fill="#000000" font-family="sans-serif" font-size="14" lengthAdjust="spacing" textLength="112" x="314" y="413.5889">lastName: string</text><text fill="#000000" font-family="sans-serif" font-size="14" lengthAdjust="spacing" textLength="84" x="314" y="429.8857">email: string</text><text fill="#000000" font-family="sans-serif" font-size="14" lengthAdjust="spacing" textLength="119" x="314" y="446.1826">isAdmin: boolean</text><text fill="#000000" font-family="sans-serif" font-size="14" lengthAdjust="spacing" textLength="109" x="314" y="462.4795">isLead: boolean</text><text fill="#000000" font-family="sans-serif" font-size="14" lengthAdjust="spacing" textLength="194" x="314" y="478.7764">createdAt: Date «generiert»</text><text fill="#000000" font-family="sans-serif" font-size="14" lengthAdjust="spacing" textLength="199" x="314" y="495.0732">updatedAt: Date «generiert»</text><line style="stroke:#181818;stroke-width:1.0;" x1="309" x2="614" y1="502.375" y2="502.375"/><text fill="#000000" font-family="sans-serif" font-size="14" lengthAdjust="spacing" textLength="163" x="314" y="519.3701">credentials: Credentials</text><text fill="#000000" font-family="sans-serif" font-size="14" lengthAdjust="spacing" textLength="195" x="314" y="535.667">participations: Participation[]</text><text fill="#000000" font-family="sans-serif" font-size="14" lengthAdjust="spacing" textLength="295" x="314" y="551.9639">jupyterHubRequests: JupyterHubRequest[]</text><line style="stroke:#181818;stroke-width:1.0;" x1="309" x2="614" y1="559.2656" y2="559.2656"/><text fill="#000000" font-family="sans-serif" font-size="14" lengthAdjust="spacing" textLength="102" x="314" y="576.2607">constructor(...)</text><text fill="#000000" font-family="sans-serif" font-size="14" lengthAdjust="spacing" textLength="54" x="314" y="592.5576">sync(...)</text><text fill="#000000" font-family="sans-serif" font-size="14" lengthAdjust="spacing" textLength="99" x="314" y="608.8545">authentikId(...)</text></g><!--MD5=[7ada83c9f125a29fb8d73b3710853a52]
class JupyterHubRequestStatus--><g id="elem_JupyterHubRequestStatus"><rect codeLine="58" fill="#F1F1F1" height="48" id="JupyterHubRequestStatus" rx="2.5" ry="2.5" style="stroke:#181818;stroke-width:0.5;" width="210" x="1113" y="558"/><ellipse cx="1128" cy="574" fill="#EB937F" rx="11" ry="11" style="stroke:#181818;stroke-width:1.0;"/><path d="M1132.1094,580 L1124.3906,580 L1124.3906,567.6094 L1132.1094,567.6094 L1132.1094,569.7656 L1126.8438,569.7656 L1126.8438,572.4375 L1131.6094,572.4375 L1131.6094,574.5938 L1126.8438,574.5938 L1126.8438,577.8438 L1132.1094,577.8438 L1132.1094,580 Z " fill="#000000"/><text fill="#000000" font-family="sans-serif" font-size="14" lengthAdjust="spacing" textLength="178" x="1142" y="578.8467">JupyterHubRequestStatus</text><line style="stroke:#181818;stroke-width:0.5;" x1="1114" x2="1322" y1="590" y2="590"/><line style="stroke:#181818;stroke-width:0.5;" x1="1114" x2="1322" y1="598" y2="598"/></g><!--MD5=[3c401d588e5a7e245887be3874ea894d]
class JupyterHubRequestUserConf--><g id="elem_JupyterHubRequestUserConf"><rect codeLine="59" fill="#F1F1F1" height="48" id="JupyterHubRequestUserConf" rx="2.5" ry="2.5" style="stroke:#181818;stroke-width:0.5;" width="230" x="1103" y="475"/><ellipse cx="1118" cy="491" fill="#B4A7E5" rx="11" ry="11" style="stroke:#181818;stroke-width:1.0;"/><path d="M1113.9219,486.7656 L1113.9219,484.6094 L1121.3125,484.6094 L1121.3125,486.7656 L1118.8438,486.7656 L1118.8438,494.8438 L1121.3125,494.8438 L1121.3125,497 L1113.9219,497 L1113.9219,494.8438 L1116.3906,494.8438 L1116.3906,486.7656 L1113.9219,486.7656 Z " fill="#000000"/><text fill="#000000" font-family="sans-serif" font-size="14" font-style="italic" lengthAdjust="spacing" textLength="198" x="1132" y="495.8467">JupyterHubRequestUserConf</text><line style="stroke:#181818;stroke-width:0.5;" x1="1104" x2="1332" y1="507" y2="507"/><line style="stroke:#181818;stroke-width:0.5;" x1="1104" x2="1332" y1="515" y2="515"/></g><!--MD5=[cc219996d9f51278325758fae7522782]
class JupyterHubBase--><g id="elem_JupyterHubBase"><rect codeLine="60" fill="#F1F1F1" height="324.75" id="JupyterHubBase" rx="2.5" ry="2.5" style="stroke:#181818;stroke-width:0.5;" width="282" x="691" y="456"/><ellipse cx="772.75" cy="472" fill="#A9DCDF" rx="11" ry="11" style="stroke:#181818;stroke-width:1.0;"/><path d="M772.8594,467.3438 L771.7031,472.4219 L774.0313,472.4219 L772.8594,467.3438 Z M771.375,465.1094 L774.3594,465.1094 L777.7188,477.5 L775.2656,477.5 L774.5,474.4375 L771.2188,474.4375 L770.4688,477.5 L768.0313,477.5 L771.375,465.1094 Z " fill="#000000"/><text fill="#000000" font-family="sans-serif" font-size="14" font-style="italic" lengthAdjust="spacing" textLength="110" x="793.25" y="476.8467">JupyterHubBase</text><line style="stroke:#181818;stroke-width:0.5;" x1="692" x2="972" y1="488" y2="488"/><ellipse cx="702" cy="499" fill="#000000" rx="3" ry="3" style="stroke:#000000;stroke-width:1.0;"/><text fill="#000000" font-family="sans-serif" font-size="14" lengthAdjust="spacing" textLength="55" x="711" y="504.9951">id: UUID</text><line style="stroke:#181818;stroke-width:1.0;" x1="692" x2="972" y1="512.2969" y2="512.2969"/><text fill="#000000" font-family="sans-serif" font-size="14" lengthAdjust="spacing" textLength="87" x="697" y="529.292">name: string</text><text fill="#000000" font-family="sans-serif" font-size="14" lengthAdjust="spacing" textLength="162" x="697" y="545.5889">description: string | null</text><text fill="#000000" font-family="sans-serif" font-size="14" lengthAdjust="spacing" textLength="270" x="697" y="561.8857">userConf: JupyterHubRequestUserConf</text><text fill="#000000" font-family="sans-serif" font-size="14" lengthAdjust="spacing" textLength="155" x="697" y="578.1826">containerImage: string</text><text fill="#000000" font-family="sans-serif" font-size="14" lengthAdjust="spacing" textLength="219" x="697" y="594.4795">notebookDefaultUrl: string | null</text><text fill="#000000" font-family="sans-serif" font-size="14" lengthAdjust="spacing" textLength="230" x="697" y="610.7764">status: JupyterHubRequestStatus</text><text fill="#000000" font-family="sans-serif" font-size="14" lengthAdjust="spacing" textLength="106" x="697" y="627.0732">startDate: Date</text><text fill="#000000" font-family="sans-serif" font-size="14" lengthAdjust="spacing" textLength="102" x="697" y="643.3701">endDate: Date</text><text fill="#000000" font-family="sans-serif" font-size="14" lengthAdjust="spacing" textLength="194" x="697" y="659.667">createdAt: Date «generiert»</text><text fill="#000000" font-family="sans-serif" font-size="14" lengthAdjust="spacing" textLength="199" x="697" y="675.9639">updatedAt: Date «generiert»</text><line style="stroke:#181818;stroke-width:1.0;" x1="692" x2="972" y1="683.2656" y2="683.2656"/><text fill="#000000" font-family="sans-serif" font-size="14" lengthAdjust="spacing" textLength="90" x="697" y="700.2607">creator: User</text><line style="stroke:#181818;stroke-width:1.0;" x1="692" x2="972" y1="707.5625" y2="707.5625"/><text fill="#000000" font-family="sans-serif" font-size="14" lengthAdjust="spacing" textLength="102" x="697" y="724.5576">constructor(...)</text><text fill="#000000" font-family="sans-serif" font-size="14" lengthAdjust="spacing" textLength="123" x="697" y="740.8545">changesAllowed()</text><text fill="#000000" font-family="sans-serif" font-size="14" lengthAdjust="spacing" textLength="94" x="697" y="757.1514">userAllowed()</text><text fill="#000000" font-family="sans-serif" font-size="14" lengthAdjust="spacing" textLength="183" x="697" y="773.4482">userAndChangesAllowed()</text></g><!--MD5=[aeb8a8ed1ca4d2fe8cdfe8347e06bb00]
class JupyterHubRequest--><g id="elem_JupyterHubRequest"><rect codeLine="83" fill="#F1F1F1" height="300.4531" id="JupyterHubRequest" rx="2.5" ry="2.5" style="stroke:#181818;stroke-width:0.5;" width="338" x="1049" y="93.5"/><ellipse cx="1146.75" cy="109.5" fill="#ADD1B2" rx="11" ry="11" style="stroke:#181818;stroke-width:1.0;"/><path d="M1150.8594,115.5 L1143.1406,115.5 L1143.1406,103.1094 L1150.8594,103.1094 L1150.8594,105.2656 L1145.5938,105.2656 L1145.5938,107.9375 L1150.3594,107.9375 L1150.3594,110.0938 L1145.5938,110.0938 L1145.5938,113.3438 L1150.8594,113.3438 L1150.8594,115.5 Z " fill="#000000"/><text fill="#000000" font-family="sans-serif" font-size="14" lengthAdjust="spacing" textLength="134" x="1167.25" y="114.3467">JupyterHubRequest</text><line style="stroke:#181818;stroke-width:0.5;" x1="1050" x2="1386" y1="125.5" y2="125.5"/><text fill="#000000" font-family="sans-serif" font-size="14" lengthAdjust="spacing" textLength="147" x="1055" y="142.4951">slug: string «unique»</text><text fill="#000000" font-family="sans-serif" font-size="14" lengthAdjust="spacing" textLength="193" x="1055" y="158.792">authentikGroup: string | null</text><text fill="#000000" font-family="sans-serif" font-size="14" lengthAdjust="spacing" textLength="156" x="1055" y="175.0889">instanceFlavour: string</text><text fill="#000000" font-family="sans-serif" font-size="14" lengthAdjust="spacing" textLength="164" x="1055" y="191.3857">instanceCount: number</text><text fill="#000000" font-family="sans-serif" font-size="14" lengthAdjust="spacing" textLength="130" x="1055" y="207.6826">hubUrl: string | null</text><line style="stroke:#181818;stroke-width:1.0;" x1="1050" x2="1386" y1="214.9844" y2="214.9844"/><text fill="#000000" font-family="sans-serif" font-size="14" lengthAdjust="spacing" textLength="326" x="1055" y="231.9795">changeRequests: JupyterHubChangeRequest[]</text><text fill="#000000" font-family="sans-serif" font-size="14" lengthAdjust="spacing" textLength="195" x="1055" y="248.2764">participations: Participation[]</text><line style="stroke:#181818;stroke-width:1.0;" x1="1050" x2="1386" y1="255.5781" y2="255.5781"/><text fill="#000000" font-family="sans-serif" font-size="14" lengthAdjust="spacing" textLength="102" x="1055" y="272.5732">constructor(...)</text><text fill="#000000" font-family="sans-serif" font-size="14" lengthAdjust="spacing" textLength="173" x="1055" y="288.8701">userConf2instanceConf()</text><text fill="#000000" font-family="sans-serif" font-size="14" lengthAdjust="spacing" textLength="233" x="1055" y="305.167">cancelPendingChangeRequests()</text><text fill="#000000" font-family="sans-serif" font-size="14" lengthAdjust="spacing" textLength="189" x="1055" y="321.4639">setChangeRequestStatus()</text><text fill="#000000" font-family="sans-serif" font-size="14" lengthAdjust="spacing" textLength="159" x="1055" y="337.7607">applyChangeRequest()</text><text fill="#000000" font-family="sans-serif" font-size="14" lengthAdjust="spacing" textLength="175" x="1055" y="354.0576">getChangeRequestById()</text><text fill="#000000" font-family="sans-serif" font-size="14" lengthAdjust="spacing" textLength="98" x="1055" y="370.3545">getCoreData()</text><text fill="#000000" font-family="sans-serif" font-size="14" lengthAdjust="spacing" textLength="147" x="1055" y="386.6514">participationAllowed()</text></g><!--MD5=[36acaeea89f1ccff80f66491d66836c7]
class JupyterHubChangeRequest--><g id="elem_JupyterHubChangeRequest"><rect codeLine="102" fill="#F1F1F1" height="104.8906" id="JupyterHubChangeRequest" rx="2.5" ry="2.5" style="stroke:#181818;stroke-width:0.5;" width="240" x="1463" y="232"/><ellipse cx="1487" cy="248" fill="#ADD1B2" rx="11" ry="11" style="stroke:#181818;stroke-width:1.0;"/><path d="M1491.1094,254 L1483.3906,254 L1483.3906,241.6094 L1491.1094,241.6094 L1491.1094,243.7656 L1485.8438,243.7656 L1485.8438,246.4375 L1490.6094,246.4375 L1490.6094,248.5938 L1485.8438,248.5938 L1485.8438,251.8438 L1491.1094,251.8438 L1491.1094,254 Z " fill="#000000"/><text fill="#000000" font-family="sans-serif" font-size="14" lengthAdjust="spacing" textLength="188" x="1503" y="252.8467">JupyterHubChangeRequest</text><line style="stroke:#181818;stroke-width:0.5;" x1="1464" x2="1702" y1="264" y2="264"/><line style="stroke:#181818;stroke-width:1.0;" x1="1464" x2="1702" y1="272" y2="272"/><text fill="#000000" font-family="sans-serif" font-size="14" lengthAdjust="spacing" textLength="228" x="1469" y="288.9951">origRequest: JupyterHubRequest</text><line style="stroke:#181818;stroke-width:1.0;" x1="1464" x2="1702" y1="296.2969" y2="296.2969"/><text fill="#000000" font-family="sans-serif" font-size="14" lengthAdjust="spacing" textLength="102" x="1469" y="313.292">constructor(...)</text><text fill="#000000" font-family="sans-serif" font-size="14" lengthAdjust="spacing" textLength="123" x="1469" y="329.5889">changesAllowed()</text></g><!--MD5=[b24b803f38722b769bef59ecacd56962]
class ParticipationStatus--><g id="elem_ParticipationStatus"><rect codeLine="42" fill="#F1F1F1" height="48" id="ParticipationStatus" rx="2.5" ry="2.5" style="stroke:#181818;stroke-width:0.5;" width="160" x="1138" y="7"/><ellipse cx="1153" cy="23" fill="#EB937F" rx="11" ry="11" style="stroke:#181818;stroke-width:1.0;"/><path d="M1157.1094,29 L1149.3906,29 L1149.3906,16.6094 L1157.1094,16.6094 L1157.1094,18.7656 L1151.8438,18.7656 L1151.8438,21.4375 L1156.6094,21.4375 L1156.6094,23.5938 L1151.8438,23.5938 L1151.8438,26.8438 L1157.1094,26.8438 L1157.1094,29 Z " fill="#000000"/><text fill="#000000" font-family="sans-serif" font-size="14" lengthAdjust="spacing" textLength="128" x="1167" y="27.8467">ParticipationStatus</text><line style="stroke:#181818;stroke-width:0.5;" x1="1139" x2="1297" y1="39" y2="39"/><line style="stroke:#181818;stroke-width:0.5;" x1="1139" x2="1297" y1="47" y2="47"/></g><!--MD5=[23bb12025fb3ea604555f955dd7f38e8]
class Participation--><g id="elem_Participation"><rect codeLine="43" fill="#F1F1F1" height="194.375" id="Participation" rx="2.5" ry="2.5" style="stroke:#181818;stroke-width:0.5;" width="211" x="726.5" y="103"/><ellipse cx="785.75" cy="119" fill="#ADD1B2" rx="11" ry="11" style="stroke:#181818;stroke-width:1.0;"/><path d="M788.7188,124.6406 Q788.1406,124.9375 787.5,125.0781 Q786.8594,125.2344 786.1563,125.2344 Q783.6563,125.2344 782.3281,123.5938 Q781.0156,121.9375 781.0156,118.8125 Q781.0156,115.6875 782.3281,114.0313 Q783.6563,112.375 786.1563,112.375 Q786.8594,112.375 787.5,112.5313 Q788.1563,112.6875 788.7188,112.9844 L788.7188,115.7031 Q788.0938,115.125 787.5,114.8594 Q786.9063,114.5781 786.2813,114.5781 Q784.9375,114.5781 784.25,115.6563 Q783.5625,116.7188 783.5625,118.8125 Q783.5625,120.9063 784.25,121.9844 Q784.9375,123.0469 786.2813,123.0469 Q786.9063,123.0469 787.5,122.7813 Q788.0938,122.5 788.7188,121.9219 L788.7188,124.6406 Z " fill="#000000"/><text fill="#000000" font-family="sans-serif" font-size="14" lengthAdjust="spacing" textLength="84" x="806.25" y="123.8467">Participation</text><line style="stroke:#181818;stroke-width:0.5;" x1="727.5" x2="936.5" y1="135" y2="135"/><ellipse cx="737.5" cy="146" fill="#000000" rx="3" ry="3" style="stroke:#000000;stroke-width:1.0;"/><text fill="#000000" font-family="sans-serif" font-size="14" lengthAdjust="spacing" textLength="82" x="746.5" y="151.9951">hubId: UUID</text><ellipse cx="737.5" cy="162.2969" fill="#000000" rx="3" ry="3" style="stroke:#000000;stroke-width:1.0;"/><text fill="#000000" font-family="sans-serif" font-size="14" lengthAdjust="spacing" textLength="127" x="746.5" y="168.292">participantId: UUID</text><line style="stroke:#181818;stroke-width:1.0;" x1="727.5" x2="936.5" y1="175.5938" y2="175.5938"/><text fill="#000000" font-family="sans-serif" font-size="14" lengthAdjust="spacing" textLength="180" x="732.5" y="192.5889">status: ParticipationStatus</text><text fill="#000000" font-family="sans-serif" font-size="14" lengthAdjust="spacing" textLength="194" x="732.5" y="208.8857">createdAt: Date «generiert»</text><text fill="#000000" font-family="sans-serif" font-size="14" lengthAdjust="spacing" textLength="199" x="732.5" y="225.1826">updatedAt: Date «generiert»</text><line style="stroke:#181818;stroke-width:1.0;" x1="727.5" x2="936.5" y1="232.4844" y2="232.4844"/><text fill="#000000" font-family="sans-serif" font-size="14" lengthAdjust="spacing" textLength="170" x="732.5" y="249.4795">hub: JupyterHubRequest</text><text fill="#000000" font-family="sans-serif" font-size="14" lengthAdjust="spacing" textLength="153" x="732.5" y="265.7764">participant: Participant</text><line style="stroke:#181818;stroke-width:1.0;" x1="727.5" x2="936.5" y1="273.0781" y2="273.0781"/><text fill="#000000" font-family="sans-serif" font-size="14" lengthAdjust="spacing" textLength="102" x="732.5" y="290.0732">constructor(...)</text></g><!--MD5=[f84a986507dcc98a3a65efea9cc026ac]
reverse link JupyterHubBase to JupyterHubRequest--><g id="link_JupyterHubBase_JupyterHubRequest"><path codeLine="111" d="M995.5,456.98 C1002.76,449.89 1009.95,442.87 1017,436 C1030.13,423.2 1043.77,409.95 1057.48,396.67 " fill="none" id="JupyterHubBase-backto-JupyterHubRequest" style="stroke:#181818;stroke-width:1.0;"/><polygon fill="none" points="1000.2,462.18,981.01,471.16,990.41,452.17,1000.2,462.18" style="stroke:#181818;stroke-width:1.0;"/></g><!--MD5=[623c8a9b9942833e8362621eb30d9679]
reverse link JupyterHubBase to JupyterHubChangeRequest--><g id="link_JupyterHubBase_JupyterHubChangeRequest"><path codeLine="112" d="M1000.82,662.12 C1119.14,684.08 1276.93,692.71 1395,623 C1498.89,561.66 1549.03,419.67 1569.72,340.29 " fill="none" id="JupyterHubBase-backto-JupyterHubChangeRequest" style="stroke:#181818;stroke-width:1.0;"/><polygon fill="none" points="999.35,668.96,981.07,658.26,1002.04,655.22,999.35,668.96" style="stroke:#181818;stroke-width:1.0;"/></g><!--MD5=[0bebb2ab2b9b0355a66cd23a3e4be2ed]
link Credentials to AuthProvider--><g id="link_Credentials_AuthProvider"><path codeLine="114" d="M233.5,368 C275.14,368 263.78,322.54 300,302 C324.84,287.91 354.56,278.59 381.63,272.45 " fill="none" id="Credentials-to-AuthProvider" style="stroke:#181818;stroke-width:1.0;"/><polygon fill="none" points="380.23,265.59,401.23,268.43,383.04,279.3,380.23,265.59" style="stroke:#181818;stroke-width:1.0;"/></g><!--MD5=[4b45e4eb18519a00c6e6867f5b84271d]
link Credentials to User--><g id="link_Credentials_User"><path codeLine="115" d="M233.5,457 C269.99,457 267.43,501.03 294.46,511.69 " fill="none" id="Credentials-to-User" style="stroke:#181818;stroke-width:1.0;"/><polygon fill="#181818" points="307.5,514,302.2858,509.0188,295.6823,511.9161,300.8965,516.8973,307.5,514" style="stroke:#181818;stroke-width:1.0;"/></g><!--MD5=[63f437bdc18828fcb956b8da2701cdef]
reverse link User to JupyterHubBase--><g id="link_User_JupyterHubBase"><path codeLine="117" d="M629.53,547.97 C680.3,565.41 621.95,693 690,693 " fill="none" id="User-backto-JupyterHubBase" style="stroke:#181818;stroke-width:1.0;"/><polygon fill="#181818" points="616.5,546,621.8403,550.8458,628.3672,547.7801,623.027,542.9343,616.5,546" style="stroke:#181818;stroke-width:1.0;"/></g><!--MD5=[210f5d7ed07e24d3fb4f7110d98aea74]
reverse link User to Participation--><g id="link_User_Participation"><path codeLine="118" d="M624.52,519.71 C649.96,470.21 711.66,259 726,259 " fill="none" id="User-backto-Participation" style="stroke:#181818;stroke-width:1.0;"/><polygon fill="#181818" points="616.5,530,623.3422,527.7229,623.8719,520.5313,617.0297,522.8084,616.5,530" style="stroke:#181818;stroke-width:1.0;"/></g><!--MD5=[2e97ddca150a0dd02e69bc2908bbe21f]
link Participation to ParticipationStatus--><g id="link_Participation_ParticipationStatus"><path codeLine="120" d="M939,187 C1000.02,187 966.26,107.91 1017,74 C1046.48,54.29 1083.39,43.42 1117.44,37.48 " fill="none" id="Participation-to-ParticipationStatus" style="stroke:#181818;stroke-width:1.0;"/><polygon fill="none" points="1116.82,30.5,1137.64,34.46,1118.89,44.34,1116.82,30.5" style="stroke:#181818;stroke-width:1.0;"/></g><!--MD5=[be249e26b0c34fd5025aaab949c39983]
link Participation to JupyterHubRequest--><g id="link_Participation_JupyterHubRequest"><path codeLine="121" d="M939,243 C982.71,243 996.84,243 1034.78,243 " fill="none" id="Participation-to-JupyterHubRequest" style="stroke:#181818;stroke-width:1.0;"/><polygon fill="#181818" points="1048,243,1042,239,1036,243,1042,247,1048,243" style="stroke:#181818;stroke-width:1.0;"/></g><!--MD5=[99f695eb0c24071024cea7b719d585a7]
link JupyterHubBase to JupyterHubRequestUserConf--><g id="link_JupyterHubBase_JupyterHubRequestUserConf"><path codeLine="123" d="M974,556 C994.39,556 997.4,545.62 1017,540 C1038.17,533.93 1060.85,528.39 1083.05,523.48 " fill="none" id="JupyterHubBase-to-JupyterHubRequestUserConf" style="stroke:#181818;stroke-width:1.0;"/><polygon fill="none" points="1081.8,516.59,1102.82,519.25,1084.74,530.28,1081.8,516.59" style="stroke:#181818;stroke-width:1.0;"/></g><!--MD5=[b3595c31568fdf678ddae4a88657ae8d]
link JupyterHubBase to JupyterHubRequestStatus--><g id="link_JupyterHubBase_JupyterHubRequestStatus"><path codeLine="124" d="M974,604 C1012.69,604 1054.7,601.2 1092.74,597.6 " fill="none" id="JupyterHubBase-to-JupyterHubRequestStatus" style="stroke:#181818;stroke-width:1.0;"/><polygon fill="none" points="1092.23,590.61,1112.83,595.59,1093.62,604.54,1092.23,590.61" style="stroke:#181818;stroke-width:1.0;"/></g><!--MD5=[647a588a1837cff969c94133c805fde0]
reverse link JupyterHubRequest to JupyterHubChangeRequest--><g id="link_JupyterHubRequest_JupyterHubChangeRequest"><path codeLine="126" d="M1401.04,229.31 C1428.07,239.97 1425.51,284 1462,284 " fill="none" id="JupyterHubRequest-backto-JupyterHubChangeRequest" style="stroke:#181818;stroke-width:1.0;"/><polygon fill="#181818" points="1388,227,1393.2142,231.9812,1399.8177,229.0839,1394.6035,224.1027,1388,227" style="stroke:#181818;stroke-width:1.0;"/></g><!--MD5=[e3cff36f7c87e172d41667bbfd6ea6ff]
@startuml
' skinparam linetype polyline
' skinparam linetype ortho
left to right direction

together {
  enum              AuthProvider
  entity            Credentials {
    * userId: UUID
    - - -
    * authProvider: AuthProvider
    * authProviderId: string
    password: string | null
    createdAt: Date <<generiert>>
    updatedAt: Date <<generiert>>
    - - -
    user: User <<eagerloaded>>
    - - -
    constructor(...)
  }

  class             User {
    * id: UUID
    - - -
    firstName: string
    lastName: string
    email: string
    isAdmin: boolean
    isLead: boolean
    createdAt: Date <<generiert>>
    updatedAt: Date <<generiert>>
    - - -
    credentials: Credentials
    participations: Participation[]
    jupyterHubRequests: JupyterHubRequest[]
    - - -
    constructor(...)
    sync(...)
    authentikId(...)
  }
}

enum              ParticipationStatus
class             Participation {
  * hubId: UUID
  * participantId: UUID
  - - -
  status: ParticipationStatus
  createdAt: Date <<generiert>>
  updatedAt: Date <<generiert>>
  - - -
  hub: JupyterHubRequest
  participant: Participant
  - - -
  constructor(...)
}

together {
  enum              JupyterHubRequestStatus
  interface         JupyterHubRequestUserConf
  abstract          JupyterHubBase {
    * id: UUID
    - - -
    name: string
    description: string | null
    userConf: JupyterHubRequestUserConf
    containerImage: string
    notebookDefaultUrl: string | null
    status: JupyterHubRequestStatus
    startDate: Date
    endDate: Date
    createdAt: Date <<generiert>>
    updatedAt: Date <<generiert>>
    - - -
    creator: User
    - - -
    constructor(...)
    changesAllowed()
    userAllowed()
    userAndChangesAllowed()
  }
}
together {
  entity            JupyterHubRequest {
    slug: string <<unique>>
    authentikGroup: string | null
    instanceFlavour: string
    instanceCount: number
    hubUrl: string | null
    - - -
    changeRequests: JupyterHubChangeRequest[]
    participations: Participation[]
    - - -
    constructor(...)
    userConf2instanceConf()
    cancelPendingChangeRequests()
    setChangeRequestStatus()
    applyChangeRequest()
    getChangeRequestById()
    getCoreData()
    participationAllowed()
  }
  entity            JupyterHubChangeRequest {
    - - -
    origRequest: JupyterHubRequest
    - - -
    constructor(...)
    changesAllowed()
  }
}

JupyterHubBase <|- - JupyterHubRequest
JupyterHubBase <|- - JupyterHubChangeRequest

Credentials::authProvider - -|> AuthProvider
Credentials::user - -* User::credentials

User::jupyterHubRequests *- - JupyterHubBase::creator
User::participations *- - Participation::participant

Participation::status - -|> ParticipationStatus
Participation::hub - -* JupyterHubRequest::participations

JupyterHubBase::userConf - -|> JupyterHubRequestUserConf
JupyterHubBase::status - -|> JupyterHubRequestStatus

JupyterHubRequest::changeRequests *- - JupyterHubChangeRequest::origRequest
@enduml

@startuml
left to right direction

together {
  enum              AuthProvider
  entity            Credentials {
    * userId: UUID
    - - -
    * authProvider: AuthProvider
    * authProviderId: string
    password: string | null
    createdAt: Date <<generiert>>
    updatedAt: Date <<generiert>>
    - - -
    user: User <<eagerloaded>>
    - - -
    constructor(...)
  }

  class             User {
    * id: UUID
    - - -
    firstName: string
    lastName: string
    email: string
    isAdmin: boolean
    isLead: boolean
    createdAt: Date <<generiert>>
    updatedAt: Date <<generiert>>
    - - -
    credentials: Credentials
    participations: Participation[]
    jupyterHubRequests: JupyterHubRequest[]
    - - -
    constructor(...)
    sync(...)
    authentikId(...)
  }
}

enum              ParticipationStatus
class             Participation {
  * hubId: UUID
  * participantId: UUID
  - - -
  status: ParticipationStatus
  createdAt: Date <<generiert>>
  updatedAt: Date <<generiert>>
  - - -
  hub: JupyterHubRequest
  participant: Participant
  - - -
  constructor(...)
}

together {
  enum              JupyterHubRequestStatus
  interface         JupyterHubRequestUserConf
  abstract          JupyterHubBase {
    * id: UUID
    - - -
    name: string
    description: string | null
    userConf: JupyterHubRequestUserConf
    containerImage: string
    notebookDefaultUrl: string | null
    status: JupyterHubRequestStatus
    startDate: Date
    endDate: Date
    createdAt: Date <<generiert>>
    updatedAt: Date <<generiert>>
    - - -
    creator: User
    - - -
    constructor(...)
    changesAllowed()
    userAllowed()
    userAndChangesAllowed()
  }
}
together {
  entity            JupyterHubRequest {
    slug: string <<unique>>
    authentikGroup: string | null
    instanceFlavour: string
    instanceCount: number
    hubUrl: string | null
    - - -
    changeRequests: JupyterHubChangeRequest[]
    participations: Participation[]
    - - -
    constructor(...)
    userConf2instanceConf()
    cancelPendingChangeRequests()
    setChangeRequestStatus()
    applyChangeRequest()
    getChangeRequestById()
    getCoreData()
    participationAllowed()
  }
  entity            JupyterHubChangeRequest {
    - - -
    origRequest: JupyterHubRequest
    - - -
    constructor(...)
    changesAllowed()
  }
}

JupyterHubBase <|- - JupyterHubRequest
JupyterHubBase <|- - JupyterHubChangeRequest

Credentials::authProvider - -|> AuthProvider
Credentials::user - -* User::credentials

User::jupyterHubRequests *- - JupyterHubBase::creator
User::participations *- - Participation::participant

Participation::status - -|> ParticipationStatus
Participation::hub - -* JupyterHubRequest::participations

JupyterHubBase::userConf - -|> JupyterHubRequestUserConf
JupyterHubBase::status - -|> JupyterHubRequestStatus

JupyterHubRequest::changeRequests *- - JupyterHubChangeRequest::origRequest
@enduml

PlantUML version 1.2022.2(Sat Mar 05 16:30:19 UTC 2022)
(GPL source distribution)
Java Runtime: OpenJDK Runtime Environment
JVM: OpenJDK 64-Bit Server VM
Default Encoding: UTF-8
Language: en
Country: null
--></g></svg>